<?xml version="1.0" encoding="utf-8" standalone="no"?>
<!DOCTYPE svg PUBLIC "-//W3C//DTD SVG 1.1//EN"
  "http://www.w3.org/Graphics/SVG/1.1/DTD/svg11.dtd">
<svg xmlns:xlink="http://www.w3.org/1999/xlink" width="144pt" height="144pt" viewBox="0 0 144 144" xmlns="http://www.w3.org/2000/svg" version="1.1">
 <metadata>
  <rdf:RDF xmlns:dc="http://purl.org/dc/elements/1.1/" xmlns:cc="http://creativecommons.org/ns#" xmlns:rdf="http://www.w3.org/1999/02/22-rdf-syntax-ns#">
   <cc:Work>
    <dc:type rdf:resource="http://purl.org/dc/dcmitype/StillImage"/>
    <dc:date>2023-01-06T19:09:49.763964</dc:date>
    <dc:format>image/svg+xml</dc:format>
    <dc:creator>
     <cc:Agent>
      <dc:title>Matplotlib v3.6.2, https://matplotlib.org/</dc:title>
     </cc:Agent>
    </dc:creator>
   </cc:Work>
  </rdf:RDF>
 </metadata>
 <defs>
  <style type="text/css">*{stroke-linejoin: round; stroke-linecap: butt}</style>
 </defs>
 <g id="figure_1">
  <g id="patch_1">
   <path d="M 0 144 
L 144 144 
L 144 0 
L 0 0 
z
" style="fill: #ffffff"/>
  </g>
  <g id="axes_1">
   <g id="matplotlib.axis_1"/>
   <g id="matplotlib.axis_2"/>
   <g id="patch_2">
    <path d="M 128.448 72 
C 128.448 64.751157 127.051696 57.569711 124.335559 50.848972 
C 121.619422 44.128234 117.633961 37.993177 112.597448 32.779803 
L 72 72 
L 128.448 72 
z
" style="fill: #0033e6; stroke: #ffffff; stroke-linejoin: miter"/>
   </g>
   <g id="patch_3">
    <path d="M 112.597448 32.779803 
C 108.080054 28.103776 102.788553 24.243181 96.956818 21.368647 
C 91.125082 18.494112 84.840312 16.648621 78.380279 15.913738 
C 71.920245 15.178856 65.381544 15.565571 59.053167 17.056791 
C 52.724791 18.548011 46.701367 21.121439 41.249115 24.663336 
C 35.796863 28.205233 30.997309 32.662637 27.062582 37.838543 
C 23.127854 43.014449 20.116788 48.831463 18.162464 55.032488 
C 16.208141 61.233512 15.339783 67.725825 15.595769 74.222482 
C 15.851755 80.71914 17.228258 87.122999 19.66444 93.151025 
C 22.100622 99.179052 25.560055 104.74111 29.889841 109.591371 
C 34.219627 114.441633 39.355024 118.507573 45.069061 121.609487 
C 50.783097 124.711401 56.990333 126.802908 63.416423 127.791567 
C 69.842514 128.780226 76.391371 128.651255 82.773553 127.410353 
C 89.155735 126.169452 95.275811 123.835175 100.863288 120.510693 
C 106.450765 117.18621 111.422095 112.921231 115.557559 107.904258 
C 119.693023 102.887284 122.930784 97.193333 125.127741 91.074063 
C 127.324697 84.954793 128.447999 78.501704 128.448 72.000005 
L 72 72 
L 112.597448 32.779803 
z
" style="fill: #00b3a6; stroke: #ffffff; stroke-linejoin: miter"/>
   </g>
   <g id="text_1">
    <!-- vozilo na misiji -->
    <g transform="translate(129.569115 49.285745) scale(0.02 -0.02)">
     <defs>
      <path id="DejaVuSans-76" d="M 191 3500 
L 800 3500 
L 1894 563 
L 2988 3500 
L 3597 3500 
L 2284 0 
L 1503 0 
L 191 3500 
z
" transform="scale(0.015625)"/>
      <path id="DejaVuSans-6f" d="M 1959 3097 
Q 1497 3097 1228 2736 
Q 959 2375 959 1747 
Q 959 1119 1226 758 
Q 1494 397 1959 397 
Q 2419 397 2687 759 
Q 2956 1122 2956 1747 
Q 2956 2369 2687 2733 
Q 2419 3097 1959 3097 
z
M 1959 3584 
Q 2709 3584 3137 3096 
Q 3566 2609 3566 1747 
Q 3566 888 3137 398 
Q 2709 -91 1959 -91 
Q 1206 -91 779 398 
Q 353 888 353 1747 
Q 353 2609 779 3096 
Q 1206 3584 1959 3584 
z
" transform="scale(0.015625)"/>
      <path id="DejaVuSans-7a" d="M 353 3500 
L 3084 3500 
L 3084 2975 
L 922 459 
L 3084 459 
L 3084 0 
L 275 0 
L 275 525 
L 2438 3041 
L 353 3041 
L 353 3500 
z
" transform="scale(0.015625)"/>
      <path id="DejaVuSans-69" d="M 603 3500 
L 1178 3500 
L 1178 0 
L 603 0 
L 603 3500 
z
M 603 4863 
L 1178 4863 
L 1178 4134 
L 603 4134 
L 603 4863 
z
" transform="scale(0.015625)"/>
      <path id="DejaVuSans-6c" d="M 603 4863 
L 1178 4863 
L 1178 0 
L 603 0 
L 603 4863 
z
" transform="scale(0.015625)"/>
      <path id="DejaVuSans-20" transform="scale(0.015625)"/>
      <path id="DejaVuSans-6e" d="M 3513 2113 
L 3513 0 
L 2938 0 
L 2938 2094 
Q 2938 2591 2744 2837 
Q 2550 3084 2163 3084 
Q 1697 3084 1428 2787 
Q 1159 2491 1159 1978 
L 1159 0 
L 581 0 
L 581 3500 
L 1159 3500 
L 1159 2956 
Q 1366 3272 1645 3428 
Q 1925 3584 2291 3584 
Q 2894 3584 3203 3211 
Q 3513 2838 3513 2113 
z
" transform="scale(0.015625)"/>
      <path id="DejaVuSans-61" d="M 2194 1759 
Q 1497 1759 1228 1600 
Q 959 1441 959 1056 
Q 959 750 1161 570 
Q 1363 391 1709 391 
Q 2188 391 2477 730 
Q 2766 1069 2766 1631 
L 2766 1759 
L 2194 1759 
z
M 3341 1997 
L 3341 0 
L 2766 0 
L 2766 531 
Q 2569 213 2275 61 
Q 1981 -91 1556 -91 
Q 1019 -91 701 211 
Q 384 513 384 1019 
Q 384 1609 779 1909 
Q 1175 2209 1959 2209 
L 2766 2209 
L 2766 2266 
Q 2766 2663 2505 2880 
Q 2244 3097 1772 3097 
Q 1472 3097 1187 3025 
Q 903 2953 641 2809 
L 641 3341 
Q 956 3463 1253 3523 
Q 1550 3584 1831 3584 
Q 2591 3584 2966 3190 
Q 3341 2797 3341 1997 
z
" transform="scale(0.015625)"/>
      <path id="DejaVuSans-6d" d="M 3328 2828 
Q 3544 3216 3844 3400 
Q 4144 3584 4550 3584 
Q 5097 3584 5394 3201 
Q 5691 2819 5691 2113 
L 5691 0 
L 5113 0 
L 5113 2094 
Q 5113 2597 4934 2840 
Q 4756 3084 4391 3084 
Q 3944 3084 3684 2787 
Q 3425 2491 3425 1978 
L 3425 0 
L 2847 0 
L 2847 2094 
Q 2847 2600 2669 2842 
Q 2491 3084 2119 3084 
Q 1678 3084 1418 2786 
Q 1159 2488 1159 1978 
L 1159 0 
L 581 0 
L 581 3500 
L 1159 3500 
L 1159 2956 
Q 1356 3278 1631 3431 
Q 1906 3584 2284 3584 
Q 2666 3584 2933 3390 
Q 3200 3197 3328 2828 
z
" transform="scale(0.015625)"/>
      <path id="DejaVuSans-73" d="M 2834 3397 
L 2834 2853 
Q 2591 2978 2328 3040 
Q 2066 3103 1784 3103 
Q 1356 3103 1142 2972 
Q 928 2841 928 2578 
Q 928 2378 1081 2264 
Q 1234 2150 1697 2047 
L 1894 2003 
Q 2506 1872 2764 1633 
Q 3022 1394 3022 966 
Q 3022 478 2636 193 
Q 2250 -91 1575 -91 
Q 1294 -91 989 -36 
Q 684 19 347 128 
L 347 722 
Q 666 556 975 473 
Q 1284 391 1588 391 
Q 1994 391 2212 530 
Q 2431 669 2431 922 
Q 2431 1156 2273 1281 
Q 2116 1406 1581 1522 
L 1381 1569 
Q 847 1681 609 1914 
Q 372 2147 372 2553 
Q 372 3047 722 3315 
Q 1072 3584 1716 3584 
Q 2034 3584 2315 3537 
Q 2597 3491 2834 3397 
z
" transform="scale(0.015625)"/>
      <path id="DejaVuSans-6a" d="M 603 3500 
L 1178 3500 
L 1178 -63 
Q 1178 -731 923 -1031 
Q 669 -1331 103 -1331 
L -116 -1331 
L -116 -844 
L 38 -844 
Q 366 -844 484 -692 
Q 603 -541 603 -63 
L 603 3500 
z
M 603 4863 
L 1178 4863 
L 1178 4134 
L 603 4134 
L 603 4863 
z
" transform="scale(0.015625)"/>
     </defs>
     <use xlink:href="#DejaVuSans-76"/>
     <use xlink:href="#DejaVuSans-6f" x="59.179688"/>
     <use xlink:href="#DejaVuSans-7a" x="120.361328"/>
     <use xlink:href="#DejaVuSans-69" x="172.851562"/>
     <use xlink:href="#DejaVuSans-6c" x="200.634766"/>
     <use xlink:href="#DejaVuSans-6f" x="228.417969"/>
     <use xlink:href="#DejaVuSans-20" x="289.599609"/>
     <use xlink:href="#DejaVuSans-6e" x="321.386719"/>
     <use xlink:href="#DejaVuSans-61" x="384.765625"/>
     <use xlink:href="#DejaVuSans-20" x="446.044922"/>
     <use xlink:href="#DejaVuSans-6d" x="477.832031"/>
     <use xlink:href="#DejaVuSans-69" x="575.244141"/>
     <use xlink:href="#DejaVuSans-73" x="603.027344"/>
     <use xlink:href="#DejaVuSans-69" x="655.126953"/>
     <use xlink:href="#DejaVuSans-6a" x="682.910156"/>
     <use xlink:href="#DejaVuSans-69" x="710.693359"/>
    </g>
   </g>
   <g id="text_2">
    <!-- 12.2% -->
    <g transform="translate(100.224617 59.861258) scale(0.02 -0.02)">
     <defs>
      <path id="DejaVuSans-31" d="M 794 531 
L 1825 531 
L 1825 4091 
L 703 3866 
L 703 4441 
L 1819 4666 
L 2450 4666 
L 2450 531 
L 3481 531 
L 3481 0 
L 794 0 
L 794 531 
z
" transform="scale(0.015625)"/>
      <path id="DejaVuSans-32" d="M 1228 531 
L 3431 531 
L 3431 0 
L 469 0 
L 469 531 
Q 828 903 1448 1529 
Q 2069 2156 2228 2338 
Q 2531 2678 2651 2914 
Q 2772 3150 2772 3378 
Q 2772 3750 2511 3984 
Q 2250 4219 1831 4219 
Q 1534 4219 1204 4116 
Q 875 4013 500 3803 
L 500 4441 
Q 881 4594 1212 4672 
Q 1544 4750 1819 4750 
Q 2544 4750 2975 4387 
Q 3406 4025 3406 3419 
Q 3406 3131 3298 2873 
Q 3191 2616 2906 2266 
Q 2828 2175 2409 1742 
Q 1991 1309 1228 531 
z
" transform="scale(0.015625)"/>
      <path id="DejaVuSans-2e" d="M 684 794 
L 1344 794 
L 1344 0 
L 684 0 
L 684 794 
z
" transform="scale(0.015625)"/>
      <path id="DejaVuSans-25" d="M 4653 2053 
Q 4381 2053 4226 1822 
Q 4072 1591 4072 1178 
Q 4072 772 4226 539 
Q 4381 306 4653 306 
Q 4919 306 5073 539 
Q 5228 772 5228 1178 
Q 5228 1588 5073 1820 
Q 4919 2053 4653 2053 
z
M 4653 2450 
Q 5147 2450 5437 2106 
Q 5728 1763 5728 1178 
Q 5728 594 5436 251 
Q 5144 -91 4653 -91 
Q 4153 -91 3862 251 
Q 3572 594 3572 1178 
Q 3572 1766 3864 2108 
Q 4156 2450 4653 2450 
z
M 1428 4353 
Q 1159 4353 1004 4120 
Q 850 3888 850 3481 
Q 850 3069 1003 2837 
Q 1156 2606 1428 2606 
Q 1700 2606 1854 2837 
Q 2009 3069 2009 3481 
Q 2009 3884 1853 4118 
Q 1697 4353 1428 4353 
z
M 4250 4750 
L 4750 4750 
L 1831 -91 
L 1331 -91 
L 4250 4750 
z
M 1428 4750 
Q 1922 4750 2215 4408 
Q 2509 4066 2509 3481 
Q 2509 2891 2217 2550 
Q 1925 2209 1428 2209 
Q 931 2209 642 2551 
Q 353 2894 353 3481 
Q 353 4063 643 4406 
Q 934 4750 1428 4750 
z
" transform="scale(0.015625)"/>
     </defs>
     <use xlink:href="#DejaVuSans-31"/>
     <use xlink:href="#DejaVuSans-32" x="63.623047"/>
     <use xlink:href="#DejaVuSans-2e" x="127.246094"/>
     <use xlink:href="#DejaVuSans-32" x="159.033203"/>
     <use xlink:href="#DejaVuSans-25" x="222.65625"/>
    </g>
   </g>
   <g id="text_3">
    <!-- ukupna kolicina svih vozila -->
    <g transform="translate(-12.281304 95.818003) scale(0.02 -0.02)">
     <defs>
      <path id="DejaVuSans-75" d="M 544 1381 
L 544 3500 
L 1119 3500 
L 1119 1403 
Q 1119 906 1312 657 
Q 1506 409 1894 409 
Q 2359 409 2629 706 
Q 2900 1003 2900 1516 
L 2900 3500 
L 3475 3500 
L 3475 0 
L 2900 0 
L 2900 538 
Q 2691 219 2414 64 
Q 2138 -91 1772 -91 
Q 1169 -91 856 284 
Q 544 659 544 1381 
z
M 1991 3584 
L 1991 3584 
z
" transform="scale(0.015625)"/>
      <path id="DejaVuSans-6b" d="M 581 4863 
L 1159 4863 
L 1159 1991 
L 2875 3500 
L 3609 3500 
L 1753 1863 
L 3688 0 
L 2938 0 
L 1159 1709 
L 1159 0 
L 581 0 
L 581 4863 
z
" transform="scale(0.015625)"/>
      <path id="DejaVuSans-70" d="M 1159 525 
L 1159 -1331 
L 581 -1331 
L 581 3500 
L 1159 3500 
L 1159 2969 
Q 1341 3281 1617 3432 
Q 1894 3584 2278 3584 
Q 2916 3584 3314 3078 
Q 3713 2572 3713 1747 
Q 3713 922 3314 415 
Q 2916 -91 2278 -91 
Q 1894 -91 1617 61 
Q 1341 213 1159 525 
z
M 3116 1747 
Q 3116 2381 2855 2742 
Q 2594 3103 2138 3103 
Q 1681 3103 1420 2742 
Q 1159 2381 1159 1747 
Q 1159 1113 1420 752 
Q 1681 391 2138 391 
Q 2594 391 2855 752 
Q 3116 1113 3116 1747 
z
" transform="scale(0.015625)"/>
      <path id="DejaVuSans-63" d="M 3122 3366 
L 3122 2828 
Q 2878 2963 2633 3030 
Q 2388 3097 2138 3097 
Q 1578 3097 1268 2742 
Q 959 2388 959 1747 
Q 959 1106 1268 751 
Q 1578 397 2138 397 
Q 2388 397 2633 464 
Q 2878 531 3122 666 
L 3122 134 
Q 2881 22 2623 -34 
Q 2366 -91 2075 -91 
Q 1284 -91 818 406 
Q 353 903 353 1747 
Q 353 2603 823 3093 
Q 1294 3584 2113 3584 
Q 2378 3584 2631 3529 
Q 2884 3475 3122 3366 
z
" transform="scale(0.015625)"/>
      <path id="DejaVuSans-68" d="M 3513 2113 
L 3513 0 
L 2938 0 
L 2938 2094 
Q 2938 2591 2744 2837 
Q 2550 3084 2163 3084 
Q 1697 3084 1428 2787 
Q 1159 2491 1159 1978 
L 1159 0 
L 581 0 
L 581 4863 
L 1159 4863 
L 1159 2956 
Q 1366 3272 1645 3428 
Q 1925 3584 2291 3584 
Q 2894 3584 3203 3211 
Q 3513 2838 3513 2113 
z
" transform="scale(0.015625)"/>
     </defs>
     <use xlink:href="#DejaVuSans-75"/>
     <use xlink:href="#DejaVuSans-6b" x="63.378906"/>
     <use xlink:href="#DejaVuSans-75" x="118.164062"/>
     <use xlink:href="#DejaVuSans-70" x="181.542969"/>
     <use xlink:href="#DejaVuSans-6e" x="245.019531"/>
     <use xlink:href="#DejaVuSans-61" x="308.398438"/>
     <use xlink:href="#DejaVuSans-20" x="369.677734"/>
     <use xlink:href="#DejaVuSans-6b" x="401.464844"/>
     <use xlink:href="#DejaVuSans-6f" x="455.75"/>
     <use xlink:href="#DejaVuSans-6c" x="516.931641"/>
     <use xlink:href="#DejaVuSans-69" x="544.714844"/>
     <use xlink:href="#DejaVuSans-63" x="572.498047"/>
     <use xlink:href="#DejaVuSans-69" x="627.478516"/>
     <use xlink:href="#DejaVuSans-6e" x="655.261719"/>
     <use xlink:href="#DejaVuSans-61" x="718.640625"/>
     <use xlink:href="#DejaVuSans-20" x="779.919922"/>
     <use xlink:href="#DejaVuSans-73" x="811.707031"/>
     <use xlink:href="#DejaVuSans-76" x="863.806641"/>
     <use xlink:href="#DejaVuSans-69" x="922.986328"/>
     <use xlink:href="#DejaVuSans-68" x="950.769531"/>
     <use xlink:href="#DejaVuSans-20" x="1014.148438"/>
     <use xlink:href="#DejaVuSans-76" x="1045.935547"/>
     <use xlink:href="#DejaVuSans-6f" x="1105.115234"/>
     <use xlink:href="#DejaVuSans-7a" x="1166.296875"/>
     <use xlink:href="#DejaVuSans-69" x="1218.787109"/>
     <use xlink:href="#DejaVuSans-6c" x="1246.570312"/>
     <use xlink:href="#DejaVuSans-61" x="1274.353516"/>
    </g>
   </g>
   <g id="text_4">
    <!-- 87.8% -->
    <g transform="translate(37.421945 85.24249) scale(0.02 -0.02)">
     <defs>
      <path id="DejaVuSans-38" d="M 2034 2216 
Q 1584 2216 1326 1975 
Q 1069 1734 1069 1313 
Q 1069 891 1326 650 
Q 1584 409 2034 409 
Q 2484 409 2743 651 
Q 3003 894 3003 1313 
Q 3003 1734 2745 1975 
Q 2488 2216 2034 2216 
z
M 1403 2484 
Q 997 2584 770 2862 
Q 544 3141 544 3541 
Q 544 4100 942 4425 
Q 1341 4750 2034 4750 
Q 2731 4750 3128 4425 
Q 3525 4100 3525 3541 
Q 3525 3141 3298 2862 
Q 3072 2584 2669 2484 
Q 3125 2378 3379 2068 
Q 3634 1759 3634 1313 
Q 3634 634 3220 271 
Q 2806 -91 2034 -91 
Q 1263 -91 848 271 
Q 434 634 434 1313 
Q 434 1759 690 2068 
Q 947 2378 1403 2484 
z
M 1172 3481 
Q 1172 3119 1398 2916 
Q 1625 2713 2034 2713 
Q 2441 2713 2670 2916 
Q 2900 3119 2900 3481 
Q 2900 3844 2670 4047 
Q 2441 4250 2034 4250 
Q 1625 4250 1398 4047 
Q 1172 3844 1172 3481 
z
" transform="scale(0.015625)"/>
      <path id="DejaVuSans-37" d="M 525 4666 
L 3525 4666 
L 3525 4397 
L 1831 0 
L 1172 0 
L 2766 4134 
L 525 4134 
L 525 4666 
z
" transform="scale(0.015625)"/>
     </defs>
     <use xlink:href="#DejaVuSans-38"/>
     <use xlink:href="#DejaVuSans-37" x="63.623047"/>
     <use xlink:href="#DejaVuSans-2e" x="127.246094"/>
     <use xlink:href="#DejaVuSans-38" x="159.033203"/>
     <use xlink:href="#DejaVuSans-25" x="222.65625"/>
    </g>
   </g>
   <g id="legend_1">
    <g id="patch_4">
     <path d="M 108.047813 141.56 
L 141.16 141.56 
Q 141.56 141.56 141.56 141.16 
L 141.56 135.48875 
Q 141.56 135.08875 141.16 135.08875 
L 108.047813 135.08875 
Q 107.647813 135.08875 107.647813 135.48875 
L 107.647813 141.16 
Q 107.647813 141.56 108.047813 141.56 
z
" style="fill: #ffffff; opacity: 0.8; stroke: #cccccc; stroke-linejoin: miter"/>
    </g>
    <g id="patch_5">
     <path d="M 108.447812 137.408437 
L 112.447812 137.408437 
L 112.447812 136.008437 
L 108.447812 136.008437 
z
" style="fill: #0033e6; stroke: #ffffff; stroke-linejoin: miter"/>
    </g>
    <g id="text_5">
     <!-- vozilo na misiji -->
     <g transform="translate(114.047812 137.408437) scale(0.02 -0.02)">
      <use xlink:href="#DejaVuSans-76"/>
      <use xlink:href="#DejaVuSans-6f" x="59.179688"/>
      <use xlink:href="#DejaVuSans-7a" x="120.361328"/>
      <use xlink:href="#DejaVuSans-69" x="172.851562"/>
      <use xlink:href="#DejaVuSans-6c" x="200.634766"/>
      <use xlink:href="#DejaVuSans-6f" x="228.417969"/>
      <use xlink:href="#DejaVuSans-20" x="289.599609"/>
      <use xlink:href="#DejaVuSans-6e" x="321.386719"/>
      <use xlink:href="#DejaVuSans-61" x="384.765625"/>
      <use xlink:href="#DejaVuSans-20" x="446.044922"/>
      <use xlink:href="#DejaVuSans-6d" x="477.832031"/>
      <use xlink:href="#DejaVuSans-69" x="575.244141"/>
      <use xlink:href="#DejaVuSans-73" x="603.027344"/>
      <use xlink:href="#DejaVuSans-69" x="655.126953"/>
      <use xlink:href="#DejaVuSans-6a" x="682.910156"/>
      <use xlink:href="#DejaVuSans-69" x="710.693359"/>
     </g>
    </g>
    <g id="patch_6">
     <path d="M 108.447812 140.344063 
L 112.447812 140.344063 
L 112.447812 138.944063 
L 108.447812 138.944063 
z
" style="fill: #00b3a6; stroke: #ffffff; stroke-linejoin: miter"/>
    </g>
    <g id="text_6">
     <!-- ukupna kolicina svih vozila -->
     <g transform="translate(114.047812 140.344063) scale(0.02 -0.02)">
      <use xlink:href="#DejaVuSans-75"/>
      <use xlink:href="#DejaVuSans-6b" x="63.378906"/>
      <use xlink:href="#DejaVuSans-75" x="118.164062"/>
      <use xlink:href="#DejaVuSans-70" x="181.542969"/>
      <use xlink:href="#DejaVuSans-6e" x="245.019531"/>
      <use xlink:href="#DejaVuSans-61" x="308.398438"/>
      <use xlink:href="#DejaVuSans-20" x="369.677734"/>
      <use xlink:href="#DejaVuSans-6b" x="401.464844"/>
      <use xlink:href="#DejaVuSans-6f" x="455.75"/>
      <use xlink:href="#DejaVuSans-6c" x="516.931641"/>
      <use xlink:href="#DejaVuSans-69" x="544.714844"/>
      <use xlink:href="#DejaVuSans-63" x="572.498047"/>
      <use xlink:href="#DejaVuSans-69" x="627.478516"/>
      <use xlink:href="#DejaVuSans-6e" x="655.261719"/>
      <use xlink:href="#DejaVuSans-61" x="718.640625"/>
      <use xlink:href="#DejaVuSans-20" x="779.919922"/>
      <use xlink:href="#DejaVuSans-73" x="811.707031"/>
      <use xlink:href="#DejaVuSans-76" x="863.806641"/>
      <use xlink:href="#DejaVuSans-69" x="922.986328"/>
      <use xlink:href="#DejaVuSans-68" x="950.769531"/>
      <use xlink:href="#DejaVuSans-20" x="1014.148438"/>
      <use xlink:href="#DejaVuSans-76" x="1045.935547"/>
      <use xlink:href="#DejaVuSans-6f" x="1105.115234"/>
      <use xlink:href="#DejaVuSans-7a" x="1166.296875"/>
      <use xlink:href="#DejaVuSans-69" x="1218.787109"/>
      <use xlink:href="#DejaVuSans-6c" x="1246.570312"/>
      <use xlink:href="#DejaVuSans-61" x="1274.353516"/>
     </g>
    </g>
   </g>
  </g>
 </g>
</svg>
